<?xml version="1.0" standalone="no"?>
<!DOCTYPE svg PUBLIC "-//W3C//DTD SVG 20010904//EN"
 "http://www.w3.org/TR/2001/REC-SVG-20010904/DTD/svg10.dtd">
<svg version="1.0" xmlns="http://www.w3.org/2000/svg"
 width="325.000000pt" height="325.000000pt" viewBox="0 0 325.000000 325.000000"
 preserveAspectRatio="xMidYMid meet">
<metadata>
Created by potrace 1.14, written by Peter Selinger 2001-2017
</metadata>
<g transform="translate(0.000000,325.000000) scale(0.100000,-0.100000)"
fill="#000000" stroke="none">
<path d="M1174 3011 c-13 -13 23 -146 49 -178 38 -47 93 -96 129 -114 37 -19
40 -23 25 -34 -9 -7 -17 -15 -17 -19 0 -3 -8 -15 -17 -25 -41 -45 -116 -181
-137 -248 -4 -13 -10 -24 -14 -24 -18 -4 -52 -8 -104 -12 -32 -3 -62 -8 -66
-11 -5 -3 -20 -7 -34 -10 -36 -6 -176 -63 -218 -88 -90 -55 -218 -169 -288
-259 -52 -65 -117 -172 -168 -272 -51 -103 -147 -363 -159 -434 -3 -18 -9 -42
-13 -55 -17 -49 -12 -53 65 -51 62 2 131 12 268 38 104 20 345 106 381 136 9
7 13 0 18 -26 4 -19 7 -37 7 -40 0 -2 5 -19 10 -37 6 -18 12 -45 14 -59 10
-70 140 -419 156 -419 3 0 53 45 110 100 57 55 107 100 110 100 3 0 18 -13 33
-29 31 -32 153 -97 201 -107 43 -9 174 -9 213 0 32 8 32 7 33 -31 4 -155 56
-284 156 -389 73 -77 127 -110 258 -160 35 -13 86 -18 199 -18 l110 -1 -1 33
c-1 17 -2 35 -3 40 -2 7 -1 35 1 148 1 29 -2 57 -5 63 -4 6 -2 11 4 11 6 0 8
5 5 10 -4 6 -6 32 -6 58 0 26 0 76 1 112 0 36 0 91 0 123 0 32 2 62 5 68 4 5
3 9 -2 9 -6 0 -9 151 -2 170 1 3 1 9 -1 15 -1 5 -3 66 -5 135 -2 69 -6 135 -8
146 -22 93 -71 187 -136 263 -45 53 -154 131 -206 148 -22 7 -31 17 -33 36 -2
15 0 27 5 28 117 7 276 59 338 111 61 50 137 139 166 193 19 36 38 65 43 65
12 0 89 -63 142 -117 57 -56 137 -181 165 -255 l22 -60 15 27 c25 49 61 156
69 208 9 64 10 247 0 305 -25 152 -114 321 -232 437 -104 103 -193 160 -319
204 -121 42 -158 45 -754 45 -316 1 -576 -1 -578 -3z"/>
</g>
</svg>
