<svg width="1280" height="578" viewBox="0 0 1280 578" fill="none" xmlns="http://www.w3.org/2000/svg">
<path opacity="0.05" d="M0 0L48.6076 48.6" stroke="#1F4287" stroke-width="3.5"/>
<path opacity="0.05" d="M48.6076 0L97.2152 48.6" stroke="#1F4287" stroke-width="3.5"/>
<path opacity="0.05" d="M145.823 0L97.2152 48.6" stroke="#1F4287" stroke-width="3.5"/>
<path opacity="0.05" d="M145.823 0L194.43 48.6" stroke="#1F4287" stroke-width="3.5"/>
<path opacity="0.05" d="M243.038 0L194.43 48.6" stroke="#1F4287" stroke-width="3.5"/>
<path opacity="0.05" d="M291.646 0L243.038 48.6" stroke="#1F4287" stroke-width="3.5"/>
<path opacity="0.05" d="M340.253 0L291.646 48.6" stroke="#1F4287" stroke-width="3.5"/>
<path opacity="0.05" d="M340.253 0L388.861 48.6" stroke="#1F4287" stroke-width="3.5"/>
<path opacity="0.05" d="M388.861 0L437.468 48.6" stroke="#1F4287" stroke-width="3.5"/>
<path opacity="0.05" d="M486.076 0L437.468 48.6" stroke="#1F4287" stroke-width="3.5"/>
<path opacity="0.05" d="M534.684 0L486.076 48.6" stroke="#1F4287" stroke-width="3.5"/>
<path opacity="0.05" d="M583.291 0L534.684 48.6" stroke="#1F4287" stroke-width="3.5"/>
<path opacity="0.05" d="M583.291 0L631.899 48.6" stroke="#1F4287" stroke-width="3.5"/>
<path opacity="0.05" d="M680.506 0L631.899 48.6" stroke="#1F4287" stroke-width="3.5"/>
<path opacity="0.05" d="M729.114 0L680.506 48.6" stroke="#1F4287" stroke-width="3.5"/>
<path opacity="0.05" d="M777.722 0L729.114 48.6" stroke="#1F4287" stroke-width="3.5"/>
<path opacity="0.05" d="M777.721 0L826.329 48.6" stroke="#1F4287" stroke-width="3.5"/>
<path opacity="0.05" d="M874.937 0L826.329 48.6" stroke="#1F4287" stroke-width="3.5"/>
<path opacity="0.05" d="M923.544 0L874.937 48.6" stroke="#1F4287" stroke-width="3.5"/>
<path opacity="0.05" d="M923.544 0L972.152 48.6" stroke="#1F4287" stroke-width="3.5"/>
<path opacity="0.05" d="M972.152 0L1020.76 48.6" stroke="#1F4287" stroke-width="3.5"/>
<path opacity="0.05" d="M1020.76 0L1069.37 48.6" stroke="#1F4287" stroke-width="3.5"/>
<path opacity="0.05" d="M1117.97 0L1069.37 48.6" stroke="#1F4287" stroke-width="3.5"/>
<path opacity="0.05" d="M1117.97 0L1166.58 48.6" stroke="#1F4287" stroke-width="3.5"/>
<path opacity="0.05" d="M1166.58 0L1215.19 48.6" stroke="#1F4287" stroke-width="3.5"/>
<path opacity="0.05" d="M1263.8 0L1215.19 48.6" stroke="#1F4287" stroke-width="3.5"/>
<path opacity="0.05" d="M1263.8 0L1312.41 48.6" stroke="#1F4287" stroke-width="3.5"/>
<path opacity="0.11" d="M0 48.6001L48.6076 97.2001" stroke="#1F4287" stroke-width="3.5"/>
<path opacity="0.11" d="M97.2152 48.6001L48.6076 97.2001" stroke="#1F4287" stroke-width="3.5"/>
<path opacity="0.11" d="M145.823 48.6001L97.2152 97.2001" stroke="#1F4287" stroke-width="3.5"/>
<path opacity="0.11" d="M194.43 48.6001L145.823 97.2001" stroke="#1F4287" stroke-width="3.5"/>
<path opacity="0.11" d="M194.43 48.6001L243.038 97.2001" stroke="#1F4287" stroke-width="3.5"/>
<path opacity="0.11" d="M243.038 48.6001L291.646 97.2001" stroke="#1F4287" stroke-width="3.5"/>
<path opacity="0.11" d="M340.253 48.6001L291.646 97.2001" stroke="#1F4287" stroke-width="3.5"/>
<path opacity="0.11" d="M340.253 48.6001L388.861 97.2001" stroke="#1F4287" stroke-width="3.5"/>
<path opacity="0.11" d="M437.468 48.6001L388.861 97.2001" stroke="#1F4287" stroke-width="3.5"/>
<path opacity="0.11" d="M486.076 48.6001L437.468 97.2001" stroke="#1F4287" stroke-width="3.5"/>
<path opacity="0.11" d="M486.076 48.6001L534.684 97.2001" stroke="#1F4287" stroke-width="3.5"/>
<path opacity="0.11" d="M534.684 48.6001L583.291 97.2001" stroke="#1F4287" stroke-width="3.5"/>
<path opacity="0.11" d="M631.899 48.6001L583.291 97.2001" stroke="#1F4287" stroke-width="3.5"/>
<path opacity="0.11" d="M631.899 48.6001L680.506 97.2001" stroke="#1F4287" stroke-width="3.5"/>
<path opacity="0.11" d="M680.506 48.6001L729.114 97.2001" stroke="#1F4287" stroke-width="3.5"/>
<path opacity="0.11" d="M777.722 48.6001L729.114 97.2001" stroke="#1F4287" stroke-width="3.5"/>
<path opacity="0.11" d="M826.329 48.6001L777.721 97.2001" stroke="#1F4287" stroke-width="3.5"/>
<path opacity="0.11" d="M826.329 48.6001L874.937 97.2001" stroke="#1F4287" stroke-width="3.5"/>
<path opacity="0.11" d="M923.544 48.6001L874.937 97.2001" stroke="#1F4287" stroke-width="3.5"/>
<path opacity="0.11" d="M972.152 48.6001L923.544 97.2001" stroke="#1F4287" stroke-width="3.5"/>
<path opacity="0.11" d="M1020.76 48.6001L972.152 97.2001" stroke="#1F4287" stroke-width="3.5"/>
<path opacity="0.11" d="M1020.76 48.6001L1069.37 97.2001" stroke="#1F4287" stroke-width="3.5"/>
<path opacity="0.11" d="M1069.37 48.6001L1117.97 97.2001" stroke="#1F4287" stroke-width="3.5"/>
<path opacity="0.11" d="M1117.97 48.6001L1166.58 97.2001" stroke="#1F4287" stroke-width="3.5"/>
<path opacity="0.11" d="M1215.19 48.6001L1166.58 97.2001" stroke="#1F4287" stroke-width="3.5"/>
<path opacity="0.11" d="M1215.19 48.6001L1263.8 97.2001" stroke="#1F4287" stroke-width="3.5"/>
<path opacity="0.11" d="M1263.8 48.6001L1312.41 97.2001" stroke="#1F4287" stroke-width="3.5"/>
<path opacity="0.18" d="M48.6076 97.2L0 145.8" stroke="#1F4287" stroke-width="3.5"/>
<path opacity="0.18" d="M97.2152 97.2L48.6076 145.8" stroke="#1F4287" stroke-width="3.5"/>
<path opacity="0.18" d="M97.2152 97.2L145.823 145.8" stroke="#1F4287" stroke-width="3.5"/>
<path opacity="0.18" d="M194.43 97.2L145.823 145.8" stroke="#1F4287" stroke-width="3.5"/>
<path opacity="0.18" d="M194.43 97.2L243.038 145.8" stroke="#1F4287" stroke-width="3.5"/>
<path opacity="0.18" d="M291.646 97.2L243.038 145.8" stroke="#1F4287" stroke-width="3.5"/>
<path opacity="0.18" d="M291.646 97.2L340.253 145.8" stroke="#1F4287" stroke-width="3.5"/>
<path opacity="0.18" d="M340.253 97.2L388.861 145.8" stroke="#1F4287" stroke-width="3.5"/>
<path opacity="0.18" d="M437.468 97.2L388.861 145.8" stroke="#1F4287" stroke-width="3.5"/>
<path opacity="0.18" d="M437.468 97.2L486.076 145.8" stroke="#1F4287" stroke-width="3.5"/>
<path opacity="0.18" d="M486.076 97.2L534.684 145.8" stroke="#1F4287" stroke-width="3.5"/>
<path opacity="0.18" d="M583.291 97.2L534.684 145.8" stroke="#1F4287" stroke-width="3.5"/>
<path opacity="0.18" d="M631.899 97.2L583.291 145.8" stroke="#1F4287" stroke-width="3.5"/>
<path opacity="0.18" d="M680.506 97.2L631.899 145.8" stroke="#1F4287" stroke-width="3.5"/>
<path opacity="0.18" d="M680.506 97.2L729.114 145.8" stroke="#1F4287" stroke-width="3.5"/>
<path opacity="0.18" d="M777.722 97.2L729.114 145.8" stroke="#1F4287" stroke-width="3.5"/>
<path opacity="0.18" d="M777.721 97.2L826.329 145.8" stroke="#1F4287" stroke-width="3.5"/>
<path opacity="0.18" d="M826.329 97.2L874.937 145.8" stroke="#1F4287" stroke-width="3.5"/>
<path opacity="0.18" d="M923.544 97.2L874.937 145.8" stroke="#1F4287" stroke-width="3.5"/>
<path opacity="0.18" d="M972.152 97.2L923.544 145.8" stroke="#1F4287" stroke-width="3.5"/>
<path opacity="0.18" d="M1020.76 97.2L972.152 145.8" stroke="#1F4287" stroke-width="3.5"/>
<path opacity="0.18" d="M1020.76 97.2L1069.37 145.8" stroke="#1F4287" stroke-width="3.5"/>
<path opacity="0.18" d="M1069.37 97.2L1117.97 145.8" stroke="#1F4287" stroke-width="3.5"/>
<path opacity="0.18" d="M1117.97 97.2L1166.58 145.8" stroke="#1F4287" stroke-width="3.5"/>
<path opacity="0.18" d="M1166.58 97.2L1215.19 145.8" stroke="#1F4287" stroke-width="3.5"/>
<path opacity="0.18" d="M1215.19 97.2L1263.8 145.8" stroke="#1F4287" stroke-width="3.5"/>
<path opacity="0.18" d="M1312.41 97.2L1263.8 145.8" stroke="#1F4287" stroke-width="3.5"/>
<path opacity="0.24" d="M0 145.8L48.6076 194.4" stroke="#1F4287" stroke-width="3.5"/>
<path opacity="0.24" d="M48.6076 145.8L97.2152 194.4" stroke="#1F4287" stroke-width="3.5"/>
<path opacity="0.24" d="M97.2152 145.8L145.823 194.4" stroke="#1F4287" stroke-width="3.5"/>
<path opacity="0.24" d="M145.823 145.8L194.43 194.4" stroke="#1F4287" stroke-width="3.5"/>
<path opacity="0.24" d="M243.038 145.8L194.43 194.4" stroke="#1F4287" stroke-width="3.5"/>
<path opacity="0.24" d="M291.646 145.8L243.038 194.4" stroke="#1F4287" stroke-width="3.5"/>
<path opacity="0.24" d="M340.253 145.8L291.646 194.4" stroke="#1F4287" stroke-width="3.5"/>
<path opacity="0.24" d="M388.861 145.8L340.253 194.4" stroke="#1F4287" stroke-width="3.5"/>
<path opacity="0.24" d="M388.861 145.8L437.468 194.4" stroke="#1F4287" stroke-width="3.5"/>
<path opacity="0.24" d="M437.468 145.8L486.076 194.4" stroke="#1F4287" stroke-width="3.5"/>
<path opacity="0.24" d="M534.684 145.8L486.076 194.4" stroke="#1F4287" stroke-width="3.5"/>
<path opacity="0.24" d="M583.291 145.8L534.684 194.4" stroke="#1F4287" stroke-width="3.5"/>
<path opacity="0.24" d="M583.291 145.8L631.899 194.4" stroke="#1F4287" stroke-width="3.5"/>
<path opacity="0.24" d="M680.506 145.8L631.899 194.4" stroke="#1F4287" stroke-width="3.5"/>
<path opacity="0.24" d="M680.506 145.8L729.114 194.4" stroke="#1F4287" stroke-width="3.5"/>
<path opacity="0.24" d="M729.114 145.8L777.722 194.4" stroke="#1F4287" stroke-width="3.5"/>
<path opacity="0.24" d="M826.329 145.8L777.721 194.4" stroke="#1F4287" stroke-width="3.5"/>
<path opacity="0.24" d="M874.937 145.8L826.329 194.4" stroke="#1F4287" stroke-width="3.5"/>
<path opacity="0.24" d="M923.544 145.8L874.937 194.4" stroke="#1F4287" stroke-width="3.5"/>
<path opacity="0.24" d="M972.152 145.8L923.544 194.4" stroke="#1F4287" stroke-width="3.5"/>
<path opacity="0.24" d="M972.152 145.8L1020.76 194.4" stroke="#1F4287" stroke-width="3.5"/>
<path opacity="0.24" d="M1069.37 145.8L1020.76 194.4" stroke="#1F4287" stroke-width="3.5"/>
<path opacity="0.24" d="M1069.37 145.8L1117.97 194.4" stroke="#1F4287" stroke-width="3.5"/>
<path opacity="0.24" d="M1166.58 145.8L1117.97 194.4" stroke="#1F4287" stroke-width="3.5"/>
<path opacity="0.24" d="M1166.58 145.8L1215.19 194.4" stroke="#1F4287" stroke-width="3.5"/>
<path opacity="0.24" d="M1215.19 145.8L1263.8 194.4" stroke="#1F4287" stroke-width="3.5"/>
<path opacity="0.24" d="M1312.41 145.8L1263.8 194.4" stroke="#1F4287" stroke-width="3.5"/>
<path opacity="0.31" d="M0 194.4L48.6076 243" stroke="#1F4287" stroke-width="3.5"/>
<path opacity="0.31" d="M48.6076 194.4L97.2152 243" stroke="#1F4287" stroke-width="3.5"/>
<path opacity="0.31" d="M97.2152 194.4L145.823 243" stroke="#1F4287" stroke-width="3.5"/>
<path opacity="0.31" d="M194.43 194.4L145.823 243" stroke="#1F4287" stroke-width="3.5"/>
<path opacity="0.31" d="M243.038 194.4L194.43 243" stroke="#1F4287" stroke-width="3.5"/>
<path opacity="0.31" d="M243.038 194.4L291.646 243" stroke="#1F4287" stroke-width="3.5"/>
<path opacity="0.31" d="M340.253 194.4L291.646 243" stroke="#1F4287" stroke-width="3.5"/>
<path opacity="0.31" d="M340.253 194.4L388.861 243" stroke="#1F4287" stroke-width="3.5"/>
<path opacity="0.31" d="M388.861 194.4L437.468 243" stroke="#1F4287" stroke-width="3.5"/>
<path opacity="0.31" d="M486.076 194.4L437.468 243" stroke="#1F4287" stroke-width="3.5"/>
<path opacity="0.31" d="M486.076 194.4L534.684 243" stroke="#1F4287" stroke-width="3.5"/>
<path opacity="0.31" d="M534.684 194.4L583.291 243" stroke="#1F4287" stroke-width="3.5"/>
<path opacity="0.31" d="M631.899 194.4L583.291 243" stroke="#1F4287" stroke-width="3.5"/>
<path opacity="0.31" d="M631.899 194.4L680.506 243" stroke="#1F4287" stroke-width="3.5"/>
<path opacity="0.31" d="M729.114 194.4L680.506 243" stroke="#1F4287" stroke-width="3.5"/>
<path opacity="0.31" d="M777.722 194.4L729.114 243" stroke="#1F4287" stroke-width="3.5"/>
<path opacity="0.31" d="M826.329 194.4L777.721 243" stroke="#1F4287" stroke-width="3.5"/>
<path opacity="0.31" d="M826.329 194.4L874.937 243" stroke="#1F4287" stroke-width="3.5"/>
<path opacity="0.31" d="M923.544 194.4L874.937 243" stroke="#1F4287" stroke-width="3.5"/>
<path opacity="0.31" d="M923.544 194.4L972.152 243" stroke="#1F4287" stroke-width="3.5"/>
<path opacity="0.31" d="M1020.76 194.4L972.152 243" stroke="#1F4287" stroke-width="3.5"/>
<path opacity="0.31" d="M1069.37 194.4L1020.76 243" stroke="#1F4287" stroke-width="3.5"/>
<path opacity="0.31" d="M1069.37 194.4L1117.97 243" stroke="#1F4287" stroke-width="3.5"/>
<path opacity="0.31" d="M1117.97 194.4L1166.58 243" stroke="#1F4287" stroke-width="3.5"/>
<path opacity="0.31" d="M1166.58 194.4L1215.19 243" stroke="#1F4287" stroke-width="3.5"/>
<path opacity="0.31" d="M1215.19 194.4L1263.8 243" stroke="#1F4287" stroke-width="3.5"/>
<path opacity="0.31" d="M1312.41 194.4L1263.8 243" stroke="#1F4287" stroke-width="3.5"/>
<path opacity="0.37" d="M0 243L48.6076 291.6" stroke="#1F4287" stroke-width="3.5"/>
<path opacity="0.37" d="M97.2152 243L48.6076 291.6" stroke="#1F4287" stroke-width="3.5"/>
<path opacity="0.37" d="M97.2152 243L145.823 291.6" stroke="#1F4287" stroke-width="3.5"/>
<path opacity="0.37" d="M194.43 243L145.823 291.6" stroke="#1F4287" stroke-width="3.5"/>
<path opacity="0.37" d="M243.038 243L194.43 291.6" stroke="#1F4287" stroke-width="3.5"/>
<path opacity="0.37" d="M291.646 243L243.038 291.6" stroke="#1F4287" stroke-width="3.5"/>
<path opacity="0.37" d="M291.646 243L340.253 291.6" stroke="#1F4287" stroke-width="3.5"/>
<path opacity="0.37" d="M340.253 243L388.861 291.6" stroke="#1F4287" stroke-width="3.5"/>
<path opacity="0.37" d="M388.861 243L437.468 291.6" stroke="#1F4287" stroke-width="3.5"/>
<path opacity="0.37" d="M437.468 243L486.076 291.6" stroke="#1F4287" stroke-width="3.5"/>
<path opacity="0.37" d="M486.076 243L534.684 291.6" stroke="#1F4287" stroke-width="3.5"/>
<path opacity="0.37" d="M534.684 243L583.291 291.6" stroke="#1F4287" stroke-width="3.5"/>
<path opacity="0.37" d="M583.291 243L631.899 291.6" stroke="#1F4287" stroke-width="3.5"/>
<path opacity="0.37" d="M680.506 243L631.899 291.6" stroke="#1F4287" stroke-width="3.5"/>
<path opacity="0.37" d="M680.506 243L729.114 291.6" stroke="#1F4287" stroke-width="3.5"/>
<path opacity="0.37" d="M777.722 243L729.114 291.6" stroke="#1F4287" stroke-width="3.5"/>
<path opacity="0.37" d="M826.329 243L777.721 291.6" stroke="#1F4287" stroke-width="3.5"/>
<path opacity="0.37" d="M826.329 243L874.937 291.6" stroke="#1F4287" stroke-width="3.5"/>
<path opacity="0.37" d="M923.544 243L874.937 291.6" stroke="#1F4287" stroke-width="3.5"/>
<path opacity="0.37" d="M923.544 243L972.152 291.6" stroke="#1F4287" stroke-width="3.5"/>
<path opacity="0.37" d="M1020.76 243L972.152 291.6" stroke="#1F4287" stroke-width="3.5"/>
<path opacity="0.37" d="M1020.76 243L1069.37 291.6" stroke="#1F4287" stroke-width="3.5"/>
<path opacity="0.37" d="M1069.37 243L1117.97 291.6" stroke="#1F4287" stroke-width="3.5"/>
<path opacity="0.37" d="M1117.97 243L1166.58 291.6" stroke="#1F4287" stroke-width="3.5"/>
<path opacity="0.37" d="M1215.19 243L1166.58 291.6" stroke="#1F4287" stroke-width="3.5"/>
<path opacity="0.37" d="M1215.19 243L1263.8 291.6" stroke="#1F4287" stroke-width="3.5"/>
<path opacity="0.37" d="M1263.8 243L1312.41 291.6" stroke="#1F4287" stroke-width="3.5"/>
<path opacity="0.43" d="M0 291.6L48.6076 340.2" stroke="#1F4287" stroke-width="3.5"/>
<path opacity="0.43" d="M97.2152 291.6L48.6076 340.2" stroke="#1F4287" stroke-width="3.5"/>
<path opacity="0.43" d="M97.2152 291.6L145.823 340.2" stroke="#1F4287" stroke-width="3.5"/>
<path opacity="0.43" d="M145.823 291.6L194.43 340.2" stroke="#1F4287" stroke-width="3.5"/>
<path opacity="0.43" d="M194.43 291.6L243.038 340.2" stroke="#1F4287" stroke-width="3.5"/>
<path opacity="0.43" d="M291.646 291.6L243.038 340.2" stroke="#1F4287" stroke-width="3.5"/>
<path opacity="0.43" d="M291.646 291.6L340.253 340.2" stroke="#1F4287" stroke-width="3.5"/>
<path opacity="0.43" d="M388.861 291.6L340.253 340.2" stroke="#1F4287" stroke-width="3.5"/>
<path opacity="0.43" d="M437.468 291.6L388.861 340.2" stroke="#1F4287" stroke-width="3.5"/>
<path opacity="0.43" d="M486.076 291.6L437.468 340.2" stroke="#1F4287" stroke-width="3.5"/>
<path opacity="0.43" d="M486.076 291.6L534.684 340.2" stroke="#1F4287" stroke-width="3.5"/>
<path opacity="0.43" d="M583.291 291.6L534.684 340.2" stroke="#1F4287" stroke-width="3.5"/>
<path opacity="0.43" d="M631.899 291.6L583.291 340.2" stroke="#1F4287" stroke-width="3.5"/>
<path opacity="0.43" d="M631.899 291.6L680.506 340.2" stroke="#1F4287" stroke-width="3.5"/>
<path opacity="0.43" d="M680.506 291.6L729.114 340.2" stroke="#1F4287" stroke-width="3.5"/>
<path opacity="0.43" d="M777.722 291.6L729.114 340.2" stroke="#1F4287" stroke-width="3.5"/>
<path opacity="0.43" d="M777.721 291.6L826.329 340.2" stroke="#1F4287" stroke-width="3.5"/>
<path opacity="0.43" d="M874.937 291.6L826.329 340.2" stroke="#1F4287" stroke-width="3.5"/>
<path opacity="0.43" d="M874.937 291.6L923.544 340.2" stroke="#1F4287" stroke-width="3.5"/>
<path opacity="0.43" d="M923.544 291.6L972.152 340.2" stroke="#1F4287" stroke-width="3.5"/>
<path opacity="0.43" d="M972.152 291.6L1020.76 340.2" stroke="#1F4287" stroke-width="3.5"/>
<path opacity="0.43" d="M1020.76 291.6L1069.37 340.2" stroke="#1F4287" stroke-width="3.5"/>
<path opacity="0.43" d="M1117.97 291.6L1069.37 340.2" stroke="#1F4287" stroke-width="3.5"/>
<path opacity="0.43" d="M1117.97 291.6L1166.58 340.2" stroke="#1F4287" stroke-width="3.5"/>
<path opacity="0.43" d="M1215.19 291.6L1166.58 340.2" stroke="#1F4287" stroke-width="3.5"/>
<path opacity="0.43" d="M1263.8 291.6L1215.19 340.2" stroke="#1F4287" stroke-width="3.5"/>
<path opacity="0.43" d="M1312.41 291.6L1263.8 340.2" stroke="#1F4287" stroke-width="3.5"/>
<path opacity="0.5" d="M0 340.2L48.6076 388.8" stroke="#1F4287" stroke-width="3.5"/>
<path opacity="0.5" d="M48.6076 340.2L97.2152 388.8" stroke="#1F4287" stroke-width="3.5"/>
<path opacity="0.5" d="M145.823 340.2L97.2152 388.8" stroke="#1F4287" stroke-width="3.5"/>
<path opacity="0.5" d="M145.823 340.2L194.43 388.8" stroke="#1F4287" stroke-width="3.5"/>
<path opacity="0.5" d="M194.43 340.2L243.038 388.8" stroke="#1F4287" stroke-width="3.5"/>
<path opacity="0.5" d="M291.646 340.2L243.038 388.8" stroke="#1F4287" stroke-width="3.5"/>
<path opacity="0.5" d="M340.253 340.2L291.646 388.8" stroke="#1F4287" stroke-width="3.5"/>
<path opacity="0.5" d="M388.861 340.2L340.253 388.8" stroke="#1F4287" stroke-width="3.5"/>
<path opacity="0.5" d="M388.861 340.2L437.468 388.8" stroke="#1F4287" stroke-width="3.5"/>
<path opacity="0.5" d="M486.076 340.2L437.468 388.8" stroke="#1F4287" stroke-width="3.5"/>
<path opacity="0.5" d="M534.684 340.2L486.076 388.8" stroke="#1F4287" stroke-width="3.5"/>
<path opacity="0.5" d="M583.291 340.2L534.684 388.8" stroke="#1F4287" stroke-width="3.5"/>
<path opacity="0.5" d="M583.291 340.2L631.899 388.8" stroke="#1F4287" stroke-width="3.5"/>
<path opacity="0.5" d="M680.506 340.2L631.899 388.8" stroke="#1F4287" stroke-width="3.5"/>
<path opacity="0.5" d="M729.114 340.2L680.506 388.8" stroke="#1F4287" stroke-width="3.5"/>
<path opacity="0.5" d="M729.114 340.2L777.722 388.8" stroke="#1F4287" stroke-width="3.5"/>
<path opacity="0.5" d="M826.329 340.2L777.721 388.8" stroke="#1F4287" stroke-width="3.5"/>
<path opacity="0.5" d="M826.329 340.2L874.937 388.8" stroke="#1F4287" stroke-width="3.5"/>
<path opacity="0.5" d="M874.937 340.2L923.544 388.8" stroke="#1F4287" stroke-width="3.5"/>
<path opacity="0.5" d="M923.544 340.2L972.152 388.8" stroke="#1F4287" stroke-width="3.5"/>
<path opacity="0.5" d="M972.152 340.2L1020.76 388.8" stroke="#1F4287" stroke-width="3.5"/>
<path opacity="0.5" d="M1020.76 340.2L1069.37 388.8" stroke="#1F4287" stroke-width="3.5"/>
<path opacity="0.5" d="M1069.37 340.2L1117.97 388.8" stroke="#1F4287" stroke-width="3.5"/>
<path opacity="0.5" d="M1166.58 340.2L1117.97 388.8" stroke="#1F4287" stroke-width="3.5"/>
<path opacity="0.5" d="M1166.58 340.2L1215.19 388.8" stroke="#1F4287" stroke-width="3.5"/>
<path opacity="0.5" d="M1263.8 340.2L1215.19 388.8" stroke="#1F4287" stroke-width="3.5"/>
<path opacity="0.5" d="M1263.8 340.2L1312.41 388.8" stroke="#1F4287" stroke-width="3.5"/>
<path opacity="0.56" d="M0 388.8L48.6076 437.4" stroke="#1F4287" stroke-width="3.5"/>
<path opacity="0.56" d="M48.6076 388.8L97.2152 437.4" stroke="#1F4287" stroke-width="3.5"/>
<path opacity="0.56" d="M97.2152 388.8L145.823 437.4" stroke="#1F4287" stroke-width="3.5"/>
<path opacity="0.56" d="M145.823 388.8L194.43 437.4" stroke="#1F4287" stroke-width="3.5"/>
<path opacity="0.56" d="M194.43 388.8L243.038 437.4" stroke="#1F4287" stroke-width="3.5"/>
<path opacity="0.56" d="M291.646 388.8L243.038 437.4" stroke="#1F4287" stroke-width="3.5"/>
<path opacity="0.56" d="M340.253 388.8L291.646 437.4" stroke="#1F4287" stroke-width="3.5"/>
<path opacity="0.56" d="M340.253 388.8L388.861 437.4" stroke="#1F4287" stroke-width="3.5"/>
<path opacity="0.56" d="M437.468 388.8L388.861 437.4" stroke="#1F4287" stroke-width="3.5"/>
<path opacity="0.56" d="M437.468 388.8L486.076 437.4" stroke="#1F4287" stroke-width="3.5"/>
<path opacity="0.56" d="M534.684 388.8L486.076 437.4" stroke="#1F4287" stroke-width="3.5"/>
<path opacity="0.56" d="M534.684 388.8L583.291 437.4" stroke="#1F4287" stroke-width="3.5"/>
<path opacity="0.56" d="M631.899 388.8L583.291 437.4" stroke="#1F4287" stroke-width="3.5"/>
<path opacity="0.56" d="M680.506 388.8L631.899 437.4" stroke="#1F4287" stroke-width="3.5"/>
<path opacity="0.56" d="M680.506 388.8L729.114 437.4" stroke="#1F4287" stroke-width="3.5"/>
<path opacity="0.56" d="M777.722 388.8L729.114 437.4" stroke="#1F4287" stroke-width="3.5"/>
<path opacity="0.56" d="M826.329 388.8L777.721 437.4" stroke="#1F4287" stroke-width="3.5"/>
<path opacity="0.56" d="M826.329 388.8L874.937 437.4" stroke="#1F4287" stroke-width="3.5"/>
<path opacity="0.56" d="M874.937 388.8L923.544 437.4" stroke="#1F4287" stroke-width="3.5"/>
<path opacity="0.56" d="M972.152 388.8L923.544 437.4" stroke="#1F4287" stroke-width="3.5"/>
<path opacity="0.56" d="M972.152 388.8L1020.76 437.4" stroke="#1F4287" stroke-width="3.5"/>
<path opacity="0.56" d="M1020.76 388.8L1069.37 437.4" stroke="#1F4287" stroke-width="3.5"/>
<path opacity="0.56" d="M1117.97 388.8L1069.37 437.4" stroke="#1F4287" stroke-width="3.5"/>
<path opacity="0.56" d="M1117.97 388.8L1166.58 437.4" stroke="#1F4287" stroke-width="3.5"/>
<path opacity="0.56" d="M1215.19 388.8L1166.58 437.4" stroke="#1F4287" stroke-width="3.5"/>
<path opacity="0.56" d="M1215.19 388.8L1263.8 437.4" stroke="#1F4287" stroke-width="3.5"/>
<path opacity="0.56" d="M1263.8 388.8L1312.41 437.4" stroke="#1F4287" stroke-width="3.5"/>
<path opacity="0.63" d="M48.6076 437.4L0 486" stroke="#1F4287" stroke-width="3.5"/>
<path opacity="0.63" d="M97.2152 437.4L48.6076 486" stroke="#1F4287" stroke-width="3.5"/>
<path opacity="0.63" d="M145.823 437.4L97.2152 486" stroke="#1F4287" stroke-width="3.5"/>
<path opacity="0.63" d="M194.43 437.4L145.823 486" stroke="#1F4287" stroke-width="3.5"/>
<path opacity="0.63" d="M243.038 437.4L194.43 486" stroke="#1F4287" stroke-width="3.5"/>
<path opacity="0.63" d="M243.038 437.4L291.646 486" stroke="#1F4287" stroke-width="3.5"/>
<path opacity="0.63" d="M340.253 437.4L291.646 486" stroke="#1F4287" stroke-width="3.5"/>
<path opacity="0.63" d="M388.861 437.4L340.253 486" stroke="#1F4287" stroke-width="3.5"/>
<path opacity="0.63" d="M388.861 437.4L437.468 486" stroke="#1F4287" stroke-width="3.5"/>
<path opacity="0.63" d="M437.468 437.4L486.076 486" stroke="#1F4287" stroke-width="3.5"/>
<path opacity="0.63" d="M534.684 437.4L486.076 486" stroke="#1F4287" stroke-width="3.5"/>
<path opacity="0.63" d="M583.291 437.4L534.684 486" stroke="#1F4287" stroke-width="3.5"/>
<path opacity="0.63" d="M583.291 437.4L631.899 486" stroke="#1F4287" stroke-width="3.5"/>
<path opacity="0.63" d="M680.506 437.4L631.899 486" stroke="#1F4287" stroke-width="3.5"/>
<path opacity="0.63" d="M729.114 437.4L680.506 486" stroke="#1F4287" stroke-width="3.5"/>
<path opacity="0.63" d="M729.114 437.4L777.722 486" stroke="#1F4287" stroke-width="3.5"/>
<path opacity="0.63" d="M826.329 437.4L777.721 486" stroke="#1F4287" stroke-width="3.5"/>
<path opacity="0.63" d="M826.329 437.4L874.937 486" stroke="#1F4287" stroke-width="3.5"/>
<path opacity="0.63" d="M874.937 437.4L923.544 486" stroke="#1F4287" stroke-width="3.5"/>
<path opacity="0.63" d="M972.152 437.4L923.544 486" stroke="#1F4287" stroke-width="3.5"/>
<path opacity="0.63" d="M972.152 437.4L1020.76 486" stroke="#1F4287" stroke-width="3.5"/>
<path opacity="0.63" d="M1069.37 437.4L1020.76 486" stroke="#1F4287" stroke-width="3.5"/>
<path opacity="0.63" d="M1117.97 437.4L1069.37 486" stroke="#1F4287" stroke-width="3.5"/>
<path opacity="0.63" d="M1117.97 437.4L1166.58 486" stroke="#1F4287" stroke-width="3.5"/>
<path opacity="0.63" d="M1215.19 437.4L1166.58 486" stroke="#1F4287" stroke-width="3.5"/>
<path opacity="0.63" d="M1263.8 437.4L1215.19 486" stroke="#1F4287" stroke-width="3.5"/>
<path opacity="0.63" d="M1263.8 437.4L1312.41 486" stroke="#1F4287" stroke-width="3.5"/>
<path opacity="0.69" d="M0 486L48.6076 534.6" stroke="#1F4287" stroke-width="3.5"/>
<path opacity="0.69" d="M97.2152 486L48.6076 534.6" stroke="#1F4287" stroke-width="3.5"/>
<path opacity="0.69" d="M145.823 486L97.2152 534.6" stroke="#1F4287" stroke-width="3.5"/>
<path opacity="0.69" d="M145.823 486L194.43 534.6" stroke="#1F4287" stroke-width="3.5"/>
<path opacity="0.69" d="M194.43 486L243.038 534.6" stroke="#1F4287" stroke-width="3.5"/>
<path opacity="0.69" d="M291.646 486L243.038 534.6" stroke="#1F4287" stroke-width="3.5"/>
<path opacity="0.69" d="M340.253 486L291.646 534.6" stroke="#1F4287" stroke-width="3.5"/>
<path opacity="0.69" d="M388.861 486L340.253 534.6" stroke="#1F4287" stroke-width="3.5"/>
<path opacity="0.69" d="M388.861 486L437.468 534.6" stroke="#1F4287" stroke-width="3.5"/>
<path opacity="0.69" d="M437.468 486L486.076 534.6" stroke="#1F4287" stroke-width="3.5"/>
<path opacity="0.69" d="M534.684 486L486.076 534.6" stroke="#1F4287" stroke-width="3.5"/>
<path opacity="0.69" d="M583.291 486L534.684 534.6" stroke="#1F4287" stroke-width="3.5"/>
<path opacity="0.69" d="M631.899 486L583.291 534.6" stroke="#1F4287" stroke-width="3.5"/>
<path opacity="0.69" d="M680.506 486L631.899 534.6" stroke="#1F4287" stroke-width="3.5"/>
<path opacity="0.69" d="M729.114 486L680.506 534.6" stroke="#1F4287" stroke-width="3.5"/>
<path opacity="0.69" d="M777.722 486L729.114 534.6" stroke="#1F4287" stroke-width="3.5"/>
<path opacity="0.69" d="M777.721 486L826.329 534.6" stroke="#1F4287" stroke-width="3.5"/>
<path opacity="0.69" d="M826.329 486L874.937 534.6" stroke="#1F4287" stroke-width="3.5"/>
<path opacity="0.69" d="M923.544 486L874.937 534.6" stroke="#1F4287" stroke-width="3.5"/>
<path opacity="0.69" d="M923.544 486L972.152 534.6" stroke="#1F4287" stroke-width="3.5"/>
<path opacity="0.69" d="M1020.76 486L972.152 534.6" stroke="#1F4287" stroke-width="3.5"/>
<path opacity="0.69" d="M1020.76 486L1069.37 534.6" stroke="#1F4287" stroke-width="3.5"/>
<path opacity="0.69" d="M1117.97 486L1069.37 534.6" stroke="#1F4287" stroke-width="3.5"/>
<path opacity="0.69" d="M1117.97 486L1166.58 534.6" stroke="#1F4287" stroke-width="3.5"/>
<path opacity="0.69" d="M1215.19 486L1166.58 534.6" stroke="#1F4287" stroke-width="3.5"/>
<path opacity="0.69" d="M1263.8 486L1215.19 534.6" stroke="#1F4287" stroke-width="3.5"/>
<path opacity="0.69" d="M1312.41 486L1263.8 534.6" stroke="#1F4287" stroke-width="3.5"/>
<path opacity="0.76" d="M48.6076 534.6L0 583.2" stroke="#1F4287" stroke-width="3.5"/>
<path opacity="0.76" d="M97.2152 534.6L48.6076 583.2" stroke="#1F4287" stroke-width="3.5"/>
<path opacity="0.76" d="M145.823 534.6L97.2152 583.2" stroke="#1F4287" stroke-width="3.5"/>
<path opacity="0.76" d="M145.823 534.6L194.43 583.2" stroke="#1F4287" stroke-width="3.5"/>
<path opacity="0.76" d="M194.43 534.6L243.038 583.2" stroke="#1F4287" stroke-width="3.5"/>
<path opacity="0.76" d="M291.646 534.6L243.038 583.2" stroke="#1F4287" stroke-width="3.5"/>
<path opacity="0.76" d="M291.646 534.6L340.253 583.2" stroke="#1F4287" stroke-width="3.5"/>
<path opacity="0.76" d="M388.861 534.6L340.253 583.2" stroke="#1F4287" stroke-width="3.5"/>
<path opacity="0.76" d="M437.468 534.6L388.861 583.2" stroke="#1F4287" stroke-width="3.5"/>
<path opacity="0.76" d="M486.076 534.6L437.468 583.2" stroke="#1F4287" stroke-width="3.5"/>
<path opacity="0.76" d="M534.684 534.6L486.076 583.2" stroke="#1F4287" stroke-width="3.5"/>
<path opacity="0.76" d="M583.291 534.6L534.684 583.2" stroke="#1F4287" stroke-width="3.5"/>
<path opacity="0.76" d="M583.291 534.6L631.899 583.2" stroke="#1F4287" stroke-width="3.5"/>
<path opacity="0.76" d="M680.506 534.6L631.899 583.2" stroke="#1F4287" stroke-width="3.5"/>
<path opacity="0.76" d="M729.114 534.6L680.506 583.2" stroke="#1F4287" stroke-width="3.5"/>
<path opacity="0.76" d="M777.722 534.6L729.114 583.2" stroke="#1F4287" stroke-width="3.5"/>
<path opacity="0.76" d="M826.329 534.6L777.721 583.2" stroke="#1F4287" stroke-width="3.5"/>
<path opacity="0.76" d="M826.329 534.6L874.937 583.2" stroke="#1F4287" stroke-width="3.5"/>
<path opacity="0.76" d="M874.937 534.6L923.544 583.2" stroke="#1F4287" stroke-width="3.5"/>
<path opacity="0.76" d="M972.152 534.6L923.544 583.2" stroke="#1F4287" stroke-width="3.5"/>
<path opacity="0.76" d="M1020.76 534.6L972.152 583.2" stroke="#1F4287" stroke-width="3.5"/>
<path opacity="0.76" d="M1020.76 534.6L1069.37 583.2" stroke="#1F4287" stroke-width="3.5"/>
<path opacity="0.76" d="M1069.37 534.6L1117.97 583.2" stroke="#1F4287" stroke-width="3.5"/>
<path opacity="0.76" d="M1166.58 534.6L1117.97 583.2" stroke="#1F4287" stroke-width="3.5"/>
<path opacity="0.76" d="M1215.19 534.6L1166.58 583.2" stroke="#1F4287" stroke-width="3.5"/>
<path opacity="0.76" d="M1215.19 534.6L1263.8 583.2" stroke="#1F4287" stroke-width="3.5"/>
<path opacity="0.76" d="M1263.8 534.6L1312.41 583.2" stroke="#1F4287" stroke-width="3.5"/>
</svg>
