<svg width="800" height="715" viewBox="0 0 800 715" fill="none" xmlns="http://www.w3.org/2000/svg">
<g clip-path="url(#clip0_27_18823)">
<path opacity="0.35" d="M1.28746e-05 119.868C2.68877 119.868 4.86843 117.689 4.86843 115C4.86843 112.311 2.68877 110.132 1.28746e-05 110.132C-2.68874 110.132 -4.86841 112.311 -4.86841 115C-4.86841 117.689 -2.68874 119.868 1.28746e-05 119.868Z" fill="#1F4287"/>
<path opacity="0.35" d="M160 119.868C162.689 119.868 164.868 117.689 164.868 115C164.868 112.311 162.689 110.132 160 110.132C157.311 110.132 155.132 112.311 155.132 115C155.132 117.689 157.311 119.868 160 119.868Z" fill="#1F4287"/>
<path d="M320 119.868C322.689 119.868 324.868 117.689 324.868 115C324.868 112.311 322.689 110.132 320 110.132C317.311 110.132 315.132 112.311 315.132 115C315.132 117.689 317.311 119.868 320 119.868Z" fill="#1F4287"/>
<path d="M480 119.868C482.689 119.868 484.868 117.689 484.868 115C484.868 112.311 482.689 110.132 480 110.132C477.311 110.132 475.132 112.311 475.132 115C475.132 117.689 477.311 119.868 480 119.868Z" fill="#1F4287"/>
<path opacity="0.35" d="M640 119.868C642.689 119.868 644.868 117.689 644.868 115C644.868 112.311 642.689 110.132 640 110.132C637.311 110.132 635.132 112.311 635.132 115C635.132 117.689 637.311 119.868 640 119.868Z" fill="#1F4287"/>
<path opacity="0.35" d="M800 119.868C802.689 119.868 804.868 117.689 804.868 115C804.868 112.311 802.689 110.132 800 110.132C797.311 110.132 795.132 112.311 795.132 115C795.132 117.689 797.311 119.868 800 119.868Z" fill="#1F4287"/>
<path opacity="0.35" d="M1.28746e-05 319.868C2.68877 319.868 4.86843 317.689 4.86843 315C4.86843 312.311 2.68877 310.132 1.28746e-05 310.132C-2.68874 310.132 -4.86841 312.311 -4.86841 315C-4.86841 317.689 -2.68874 319.868 1.28746e-05 319.868Z" fill="#1F4287"/>
<path opacity="0.35" d="M160 319.868C162.689 319.868 164.868 317.689 164.868 315C164.868 312.311 162.689 310.132 160 310.132C157.311 310.132 155.132 312.311 155.132 315C155.132 317.689 157.311 319.868 160 319.868Z" fill="#1F4287"/>
<path d="M320 319.868C322.689 319.868 324.868 317.689 324.868 315C324.868 312.311 322.689 310.132 320 310.132C317.311 310.132 315.132 312.311 315.132 315C315.132 317.689 317.311 319.868 320 319.868Z" fill="#1F4287"/>
<path opacity="0.35" d="M480 319.868C482.689 319.868 484.868 317.689 484.868 315C484.868 312.311 482.689 310.132 480 310.132C477.311 310.132 475.132 312.311 475.132 315C475.132 317.689 477.311 319.868 480 319.868Z" fill="#1F4287"/>
<path opacity="0.35" d="M640 319.868C642.689 319.868 644.868 317.689 644.868 315C644.868 312.311 642.689 310.132 640 310.132C637.311 310.132 635.132 312.311 635.132 315C635.132 317.689 637.311 319.868 640 319.868Z" fill="#1F4287"/>
<path opacity="0.35" d="M800 319.868C802.689 319.868 804.868 317.689 804.868 315C804.868 312.311 802.689 310.132 800 310.132C797.311 310.132 795.132 312.311 795.132 315C795.132 317.689 797.311 319.868 800 319.868Z" fill="#1F4287"/>
<path opacity="0.35" d="M1.28746e-05 519.868C2.68877 519.868 4.86843 517.689 4.86843 515C4.86843 512.311 2.68877 510.132 1.28746e-05 510.132C-2.68874 510.132 -4.86841 512.311 -4.86841 515C-4.86841 517.689 -2.68874 519.868 1.28746e-05 519.868Z" fill="#1F4287"/>
<path opacity="0.35" d="M160 519.868C162.689 519.868 164.868 517.689 164.868 515C164.868 512.311 162.689 510.132 160 510.132C157.311 510.132 155.132 512.311 155.132 515C155.132 517.689 157.311 519.868 160 519.868Z" fill="#1F4287"/>
<path opacity="0.35" d="M320 519.868C322.689 519.868 324.868 517.689 324.868 515C324.868 512.311 322.689 510.132 320 510.132C317.311 510.132 315.132 512.311 315.132 515C315.132 517.689 317.311 519.868 320 519.868Z" fill="#1F4287"/>
<path d="M480 519.868C482.689 519.868 484.868 517.689 484.868 515C484.868 512.311 482.689 510.132 480 510.132C477.311 510.132 475.132 512.311 475.132 515C475.132 517.689 477.311 519.868 480 519.868Z" fill="#1F4287"/>
<path opacity="0.35" d="M640 519.868C642.689 519.868 644.868 517.689 644.868 515C644.868 512.311 642.689 510.132 640 510.132C637.311 510.132 635.132 512.311 635.132 515C635.132 517.689 637.311 519.868 640 519.868Z" fill="#1F4287"/>
<path opacity="0.35" d="M800 519.868C802.689 519.868 804.868 517.689 804.868 515C804.868 512.311 802.689 510.132 800 510.132C797.311 510.132 795.132 512.311 795.132 515C795.132 517.689 797.311 519.868 800 519.868Z" fill="#1F4287"/>
<path opacity="0.35" d="M1.28746e-05 719.868C2.68877 719.868 4.86843 717.689 4.86843 715C4.86843 712.311 2.68877 710.132 1.28746e-05 710.132C-2.68874 710.132 -4.86841 712.311 -4.86841 715C-4.86841 717.689 -2.68874 719.868 1.28746e-05 719.868Z" fill="#1F4287"/>
<path opacity="0.35" d="M160 719.868C162.689 719.868 164.868 717.689 164.868 715C164.868 712.311 162.689 710.132 160 710.132C157.311 710.132 155.132 712.311 155.132 715C155.132 717.689 157.311 719.868 160 719.868Z" fill="#1F4287"/>
<path opacity="0.35" d="M320 719.868C322.689 719.868 324.868 717.689 324.868 715C324.868 712.311 322.689 710.132 320 710.132C317.311 710.132 315.132 712.311 315.132 715C315.132 717.689 317.311 719.868 320 719.868Z" fill="#1F4287"/>
<path opacity="0.35" d="M480 719.868C482.689 719.868 484.868 717.689 484.868 715C484.868 712.311 482.689 710.132 480 710.132C477.311 710.132 475.132 712.311 475.132 715C475.132 717.689 477.311 719.868 480 719.868Z" fill="#1F4287"/>
<path opacity="0.35" d="M640 719.868C642.689 719.868 644.868 717.689 644.868 715C644.868 712.311 642.689 710.132 640 710.132C637.311 710.132 635.132 712.311 635.132 715C635.132 717.689 637.311 719.868 640 719.868Z" fill="#1F4287"/>
<path opacity="0.35" d="M800 719.868C802.689 719.868 804.868 717.689 804.868 715C804.868 712.311 802.689 710.132 800 710.132C797.311 710.132 795.132 712.311 795.132 715C795.132 717.689 797.311 719.868 800 719.868Z" fill="#1F4287"/>
</g>
<defs>
<clipPath id="clip0_27_18823">
<rect width="800" height="800" fill="white" transform="translate(0 -85)"/>
</clipPath>
</defs>
</svg>
